<svg xmlns="http://www.w3.org/2000/svg" width="64" height="64" viewBox="0 0 64 64">
  
  <defs>
    <linearGradient id="grad" spreadMethod="pad" x1="0%" x2="0%" y1="0%" y2="100%">
      <stop offset="0%" stop-color="#D97757" stop-opacity="1" />
      <stop offset="100%" stop-color="#E89275" stop-opacity="1" />
    </linearGradient>
  </defs>
  <rect width="64" height="64" rx="12" ry="12" fill="#141413" />
  
  <svg x="10.24" y="10.24" width="43.519999999999996" height="43.519999999999996" viewBox="3 17 350 350" overflow="visible">
    <g fill="url(#grad)" stroke="#EFA58E" stroke-linecap="round" stroke-linejoin="round" stroke-width="36" transform="translate(0,386) scale(0.1,-0.1)">
      <path d="M1690 3445 c-452 -57 -856 -307 -1112 -689 -358 -535 -352 -1238 14 -1779 87 -129 285 -325 413 -410 413 -273 913 -339 1381 -183 448 151 755 491 852 946 39 180 53 443 35 633 l-6 67 -312 0 c-171 0 -549 -3 -839 -7 l-526 -6 2 -296 3 -295 430 4 c646 7 581 8 577 -15 -6 -39 -63 -150 -104 -203 -88 -113 -261 -220 -428 -264 -116 -30 -309 -30 -425 1 -172 45 -336 150 -451 289 -67 80 -146 237 -175 347 -27 102 -37 351 -19 463 52 326 244 597 513 723 189 88 442 94 669 15 146 -51 317 -175 378 -275 14 -22 29 -39 33 -38 5 1 113 94 242 207 l233 205 -31 39 c-58 74 -179 186 -264 247 -217 154 -438 239 -713 274 -135 18 -227 18 -370 0z" />
    </g>
  </svg>
</svg>